<svg viewBox="0 0 1500 500" fill="none" xmlns="http://www.w3.org/2000/svg" xmlns:anim="http://www.w3.org/2000/anim" anim="" anim:transform-origin="50% 50%" anim:duration="0.5" anim:ease="power1.inOut">
  <g id="f5a024cf52dcb9d73518408a4b0cca24" clip-path="url(#clip0_14_26)">
    <g id="f6f4b812f858aefc64e1b0fdf638294e">
      <path id="e5ce03c67500e6460b8def3f4ffae6da" d="M1500 0H0V500H1500V0Z" fill="#1E1E1E"></path>
      <path id="cb89f270aafd26c86f51cfe953055eb9" d="M1500 0H0V500H1500V0Z" fill="#1E1E1E"></path>
      <path id="999b1ad8231180184caf38ed6b540ed7" d="M1575.24 -349.51L286 622L743.319 1228.88L2032.56 257.373L1575.24 -349.51Z" fill="#DF2525"></path>
      <path id="0a28b5510175e530d729c9139fb33675" d="M750 408C851.068 408 933 326.068 933 225C933 123.932 851.068 42 750 42C648.932 42 567 123.932 567 225C567 326.068 648.932 408 750 408Z" fill="white"></path>
      <g id="1184c69ae73d5ec73f28f561fd38a87b">
        <path id="daa792a5b2caddb355445abb788388e3" d="M874.875 223.899C874.875 305.703 826.597 366.05 748.816 366.05C675.059 366.05 625.44 305.703 625.44 223.899C625.44 142.095 676.4 108.568 747.475 108.568C818.551 108.568 874.875 142.095 874.875 223.899Z" fill="black"></path>
        <path id="912916ae50533fefb372fa1fc2a3075e" d="M833.303 309.726C833.303 336.547 794.412 362.027 748.816 362.027C701.88 362.027 667.012 336.547 667.012 309.726C667.012 282.905 701.88 265.471 748.816 265.471C795.753 265.471 833.303 282.905 833.303 309.726Z" fill="black"></path>
        <path id="635e17898b641eaf1cf4ccc4965dad25" d="M791.73 274.859C791.73 284.246 766.25 307.044 751.499 307.044C736.747 307.044 708.585 284.246 708.585 274.859C708.585 264.13 735.406 257.425 750.157 257.425C766.25 257.425 791.73 264.13 791.73 274.859Z" fill="black"></path>
        <path id="1ec8e8aba0f10854777e5fe7b65aa7aa" d="M640.594 165.965C658.221 165.965 672.511 152.096 672.511 134.987C672.511 117.878 658.221 104.009 640.594 104.009C622.966 104.009 608.677 117.878 608.677 134.987C608.677 152.096 622.966 165.965 640.594 165.965Z" fill="black"></path>
        <path id="46ff15c498b2fc38322e19006a75bb40" d="M662.989 132.707C662.291 127.493 659.585 122.701 655.383 119.241C651.18 115.78 645.775 113.891 640.191 113.933C634.38 114.255 628.921 116.657 624.931 120.646C620.941 124.636 618.724 129.911 618.735 135.389C618.724 140.868 620.941 146.143 624.931 150.132C628.921 154.122 634.38 156.524 640.191 156.846C640.638 156.859 641.085 156.859 641.532 156.846L645.556 151.482C649.79 145.53 654.745 140.124 660.307 135.389L662.989 132.707Z" fill="black"></path>
        <path id="4c7e335d770a58c420a10644d0c6e59a" d="M859.051 165.965C841.423 165.965 827.134 152.096 827.134 134.987C827.134 117.878 841.423 104.009 859.051 104.009C876.678 104.009 890.968 117.878 890.968 134.987C890.968 152.096 876.678 165.965 859.051 165.965Z" fill="black"></path>
        <path id="4a8cd011e0cdc2c9d85454a024a7a755" d="M837.326 132.707C837.988 127.704 840.502 123.08 844.426 119.647C848.349 116.213 853.432 114.19 858.783 113.933C864.829 113.933 870.628 116.193 874.903 120.217C879.178 124.241 881.58 129.699 881.58 135.389C881.58 141.08 879.178 146.538 874.903 150.562C870.628 154.586 864.829 156.846 858.783 156.846C858.336 156.859 857.888 156.859 857.441 156.846L854.759 151.482C850.525 145.53 845.57 140.124 840.008 135.389L837.326 132.707Z" fill="black"></path>
        <path id="4d7d56c5fff0eddd35e87acc02446ed0" d="M747.475 117.956C728.701 117.956 712.608 119.297 696.515 123.32V138.072C731.999 131.251 768.498 131.707 803.799 139.413V124.661C786.366 120.638 767.591 117.956 747.475 117.956Z" fill="black"></path>
        <path id="19d7806a8234dba91547f09f8e97f0da" d="M770.273 119.297C774.048 121.056 776.429 123.436 776.978 126.002C776.882 127.554 776.113 129.078 774.724 130.467C773.334 131.856 771.358 133.078 768.932 134.048L803.799 139.413V124.661L770.273 119.297Z" fill="black"></path>
        <path id="c43072b33c0685e9a04b0811c0026b22" d="M747.475 83.0885C689.81 83.0885 645.556 109.91 636.168 168.916C652.261 154.164 673.718 143.436 696.515 138.072C696.515 138.072 693.833 121.979 709.926 116.615C730.042 111.251 735.406 111.251 747.475 111.251C760.886 111.251 767.591 111.251 787.707 116.615C807.823 121.979 803.799 139.413 803.799 139.413C827.938 146.118 846.713 154.164 864.147 168.916C853.418 107.227 806.482 83.0885 747.475 83.0885Z" fill="black"></path>
        <path id="b37daa4c26377e2876b0689eb26f740e" d="M679.082 183.667C679.148 187.708 678.344 191.715 676.724 195.418C675.105 199.12 672.707 202.43 669.694 205.124C666.77 207.655 663.356 209.557 659.664 210.71C655.973 211.864 652.083 212.245 648.238 211.829M822.574 183.667C822.336 187.608 822.93 191.555 824.316 195.251C825.702 198.948 827.85 202.311 830.62 205.124C833.545 207.655 836.959 209.557 840.651 210.71C844.342 211.864 848.232 212.245 852.077 211.829" stroke="#E9AFAF" stroke-width="4.02315" stroke-linecap="round" stroke-linejoin="round"></path>
        <path id="a5c9d4fb89cf1aed078f424267929eee" d="M652.261 171.598C644.215 171.598 634.827 171.598 621.417 174.28L602.642 178.303L605.324 198.419L614.711 201.101C618.735 207.806 616.052 214.511 617.394 225.24C621.417 262.789 633.486 270.835 652.261 272.177C662.989 273.518 683.105 276.2 696.515 270.835C709.926 265.471 721.995 257.425 730.042 246.697C738.088 234.627 738.088 222.558 743.452 211.829C747.475 205.124 754.181 206.465 756.863 211.829C760.886 222.558 762.227 234.627 770.273 246.697C778.32 257.425 790.389 265.471 802.458 270.835C817.21 276.2 837.326 273.518 848.054 272.177C866.829 270.835 878.898 262.789 882.921 225.24C884.262 214.511 880.239 207.806 885.604 201.101L894.991 198.419L897.673 178.303L877.557 174.28C857.441 170.257 846.713 171.598 831.962 171.598H814.528L781.002 176.962C770.273 179.644 760.886 186.349 750.157 185.008C739.429 185.008 730.042 178.303 719.313 176.962L685.787 171.598H652.261Z" fill="black"></path>
        <path id="85bd655555203051dfaa5656e10ca392" d="M662.989 178.303C649.579 179.644 629.463 179.644 625.44 195.737C621.417 215.852 621.417 238.65 633.486 256.084C642.873 270.835 664.33 268.153 680.423 268.153C705.903 266.812 727.36 246.697 734.065 222.558C736.747 211.829 739.429 203.783 735.406 197.078C727.36 183.667 708.585 180.985 693.833 179.644L662.989 178.303Z" fill="black"></path>
        <path id="19d1bce4b43dcbfb1d46a536cdd6ea55" d="M624.099 183.667C624.099 184.378 623.534 185.061 622.528 185.564C621.522 186.067 620.157 186.349 618.735 186.349C617.312 186.349 615.947 186.067 614.942 185.564C613.936 185.061 613.37 184.378 613.37 183.667C613.896 183.202 614.687 182.826 615.643 182.587C616.598 182.348 617.675 182.257 618.735 182.326C619.794 182.257 620.871 182.348 621.827 182.587C622.782 182.826 623.573 183.202 624.099 183.667" fill="black"></path>
        <path id="2337196d35a3c9fe82c6cf80a18c7de3" d="M837.326 178.303C850.736 179.644 869.511 179.644 874.875 195.737C878.898 215.852 878.898 238.65 866.829 256.084C857.441 270.835 835.985 268.153 819.892 268.153C794.412 266.812 772.955 246.697 766.25 222.558C763.568 211.829 760.886 203.783 764.909 197.078C772.955 183.667 791.73 180.985 806.482 179.644L837.326 178.303Z" fill="black"></path>
        <path id="f541eb5c9b35fcac69be48c58f26c1e0" d="M876.216 183.667C876.216 184.378 876.781 185.061 877.787 185.564C878.793 186.067 880.158 186.349 881.58 186.349C883.003 186.349 884.367 186.067 885.373 185.564C886.379 185.061 886.945 184.378 886.945 183.667C886.419 183.202 885.628 182.826 884.672 182.587C883.717 182.348 882.64 182.257 881.58 182.326C880.521 182.257 879.444 182.348 878.488 182.587C877.533 182.826 876.741 183.202 876.216 183.667" fill="black"></path>
        <path id="5cf96a62720617a7317eb1d63fff96f2" d="M684.446 179.644L658.966 268.153H681.764L705.903 180.985L684.446 179.644ZM668.353 178.303H662.989L658.966 179.644L634.827 258.766L642.873 265.471L668.353 178.303Z" fill="black"></path>
      </g>
    </g>
    <g id="3e10f960aa4c9ebf49cbb0f4c340ef2d">
      <path d="M1500 0H1098.07L913 142.918C949.929 228.682 929.312 294.979 879.5 353.298C814.229 413.332 712.882 430.978 627 359.794L445.366 500H1500V0Z" fill="#0E0D0E"></path>
      <path d="M0 1.71527H1096.68L913 142.918C865.803 64.016 795.481 32.5901 703.661 48.8851C563.787 93.482 527.458 257.736 627 359.794L445.366 500H0V1.71527Z" fill="url(#ec9aca2807661f8a1c8d8afeb965e68f)"></path>
      <path d="M721.479 441.467V463.979H718.518V446.387L711.149 458.641H710.763L703.394 446.419V463.979H700.401V441.467H703.78L710.956 453.366L718.1 441.467H721.479Z" fill="white"></path>
      <path d="M741.581 447.899H744.381V463.979H741.581V461.214C740.186 463.336 738.159 464.398 735.499 464.398C733.246 464.398 731.326 463.583 729.739 461.953C728.151 460.302 727.357 458.298 727.357 455.939C727.357 453.581 728.151 451.587 729.739 449.957C731.326 448.306 733.246 447.481 735.499 447.481C738.159 447.481 740.186 448.542 741.581 450.665V447.899ZM735.853 461.696C737.483 461.696 738.846 461.149 739.94 460.056C741.034 458.941 741.581 457.569 741.581 455.939C741.581 454.31 741.034 452.948 739.94 451.855C738.846 450.74 737.483 450.182 735.853 450.182C734.244 450.182 732.892 450.74 731.798 451.855C730.704 452.948 730.157 454.31 730.157 455.939C730.157 457.569 730.704 458.941 731.798 460.056C732.892 461.149 734.244 461.696 735.853 461.696Z" fill="white"></path>
      <path d="M764.487 463.979H761.011L753.674 456.357V463.979H750.875V441.467H753.674V455.006L760.625 447.899H764.229L756.538 455.682L764.487 463.979Z" fill="white"></path>
      <path d="M770.759 444.972C770.222 444.972 769.772 444.79 769.407 444.425C769.043 444.061 768.86 443.621 768.86 443.107C768.86 442.592 769.043 442.153 769.407 441.788C769.772 441.402 770.222 441.209 770.759 441.209C771.274 441.209 771.713 441.402 772.078 441.788C772.443 442.153 772.625 442.592 772.625 443.107C772.625 443.621 772.443 444.061 772.078 444.425C771.713 444.79 771.274 444.972 770.759 444.972ZM769.343 463.979V447.899H772.142V463.979H769.343Z" fill="white"></path>
      <path d="M786.679 447.481C788.567 447.481 790.079 448.081 791.216 449.282C792.353 450.461 792.922 452.069 792.922 454.106V463.979H790.122V454.267C790.122 452.959 789.768 451.951 789.06 451.244C788.352 450.515 787.376 450.15 786.132 450.15C784.737 450.15 783.611 450.59 782.753 451.469C781.895 452.326 781.466 453.656 781.466 455.457V463.979H778.666V447.899H781.466V450.214C782.603 448.392 784.341 447.481 786.679 447.481Z" fill="white"></path>
      <path d="M812.437 447.899H815.205V463.304C815.205 465.684 814.4 467.528 812.791 468.836C811.182 470.165 809.251 470.83 806.999 470.83C805.197 470.83 803.641 470.487 802.333 469.801C801.024 469.136 800.037 468.171 799.372 466.906L801.818 465.523C802.697 467.324 804.446 468.225 807.063 468.225C808.737 468.225 810.045 467.785 810.989 466.906C811.954 466.027 812.437 464.826 812.437 463.304V461.021C811.021 463.165 809.005 464.237 806.387 464.237C804.092 464.237 802.15 463.422 800.563 461.792C798.975 460.163 798.182 458.18 798.182 455.843C798.182 453.506 798.975 451.533 800.563 449.925C802.15 448.295 804.092 447.481 806.387 447.481C809.026 447.481 811.043 448.542 812.437 450.665V447.899ZM802.622 459.927C803.716 461.021 805.079 461.567 806.709 461.567C808.34 461.567 809.702 461.021 810.796 459.927C811.89 458.834 812.437 457.472 812.437 455.843C812.437 454.235 811.89 452.884 810.796 451.79C809.702 450.697 808.34 450.15 806.709 450.15C805.079 450.15 803.716 450.697 802.622 451.79C801.528 452.884 800.981 454.235 800.981 455.843C800.981 457.472 801.528 458.834 802.622 459.927Z" fill="white"></path>
      <path d="M847.121 463.979L845.287 458.93H835.15L833.316 463.979H830.13L838.529 441.467H841.908L850.307 463.979H847.121ZM836.18 456.132H844.257L840.202 445.036L836.18 456.132Z" fill="white"></path>
      <path d="M873.252 447.899H876.18L871.193 463.979H868.329L864.564 452.08L860.799 463.979H857.935L852.947 447.899H855.875L859.415 460.12L863.212 447.899H865.915L869.712 460.152L873.252 447.899Z" fill="white"></path>
      <path d="M882.649 457.226C882.927 458.662 883.582 459.777 884.612 460.57C885.663 461.364 886.95 461.76 888.473 461.76C890.597 461.76 892.142 460.978 893.107 459.413L895.488 460.763C893.922 463.186 891.562 464.398 888.409 464.398C885.856 464.398 883.775 463.604 882.166 462.018C880.578 460.41 879.785 458.383 879.785 455.939C879.785 453.516 880.568 451.501 882.134 449.893C883.7 448.285 885.727 447.481 888.216 447.481C890.576 447.481 892.496 448.317 893.976 449.989C895.478 451.64 896.228 453.634 896.228 455.971C896.228 456.379 896.196 456.797 896.132 457.226H882.649ZM888.216 450.118C886.714 450.118 885.47 450.547 884.483 451.404C883.496 452.241 882.885 453.366 882.649 454.781H893.397C893.161 453.259 892.56 452.101 891.595 451.308C890.629 450.515 889.503 450.118 888.216 450.118Z" fill="white"></path>
      <path d="M903.484 452.241C903.484 452.862 903.795 453.366 904.417 453.752C905.039 454.117 905.79 454.417 906.67 454.653C907.55 454.867 908.429 455.124 909.309 455.425C910.188 455.703 910.939 456.196 911.561 456.904C912.183 457.59 912.494 458.48 912.494 459.573C912.494 461.031 911.926 462.2 910.789 463.079C909.673 463.958 908.236 464.398 906.477 464.398C904.911 464.398 903.57 464.054 902.454 463.368C901.339 462.682 900.545 461.771 900.073 460.635L902.487 459.252C902.744 460.024 903.227 460.635 903.935 461.085C904.643 461.535 905.49 461.76 906.477 461.76C907.399 461.76 908.161 461.589 908.762 461.246C909.362 460.881 909.663 460.324 909.663 459.573C909.663 458.952 909.352 458.458 908.729 458.094C908.107 457.708 907.356 457.408 906.477 457.193C905.597 456.958 904.718 456.69 903.838 456.389C902.958 456.089 902.208 455.596 901.586 454.91C900.963 454.224 900.652 453.345 900.652 452.273C900.652 450.879 901.189 449.732 902.261 448.832C903.356 447.931 904.718 447.481 906.348 447.481C907.657 447.481 908.815 447.781 909.824 448.381C910.853 448.96 911.626 449.775 912.141 450.825L909.791 452.144C909.212 450.772 908.064 450.086 906.348 450.086C905.554 450.086 904.879 450.279 904.321 450.665C903.763 451.029 903.484 451.554 903.484 452.241Z" fill="white"></path>
      <path d="M931.202 461.953C929.55 463.583 927.544 464.398 925.184 464.398C922.824 464.398 920.818 463.583 919.167 461.953C917.536 460.324 916.721 458.319 916.721 455.939C916.721 453.559 917.536 451.554 919.167 449.925C920.818 448.295 922.824 447.481 925.184 447.481C927.544 447.481 929.55 448.295 931.202 449.925C932.854 451.554 933.68 453.559 933.68 455.939C933.68 458.319 932.854 460.324 931.202 461.953ZM925.184 461.664C926.793 461.664 928.145 461.117 929.239 460.024C930.333 458.93 930.88 457.569 930.88 455.939C930.88 454.31 930.333 452.948 929.239 451.855C928.145 450.761 926.793 450.214 925.184 450.214C923.596 450.214 922.256 450.761 921.162 451.855C920.067 452.948 919.52 454.31 919.52 455.939C919.52 457.569 920.067 458.93 921.162 460.024C922.256 461.117 923.596 461.664 925.184 461.664Z" fill="white"></path>
      <path d="M956.609 447.481C958.411 447.481 959.87 448.07 960.986 449.25C962.101 450.407 962.659 451.983 962.659 453.977V463.979H959.86V454.074C959.86 452.83 959.538 451.865 958.894 451.179C958.251 450.493 957.392 450.15 956.32 450.15C955.118 450.15 954.153 450.557 953.424 451.372C952.716 452.166 952.362 453.388 952.362 455.039V463.979H949.562V454.074C949.562 452.83 949.251 451.865 948.629 451.179C948.028 450.493 947.202 450.15 946.151 450.15C944.971 450.15 943.984 450.557 943.191 451.372C942.418 452.187 942.032 453.409 942.032 455.039V463.979H939.232V447.899H942.032V450.054C943.126 448.338 944.724 447.481 946.827 447.481C948.994 447.481 950.57 448.392 951.557 450.214C952.673 448.392 954.357 447.481 956.609 447.481Z" fill="white"></path>
      <path d="M970.757 457.226C971.036 458.662 971.69 459.777 972.72 460.57C973.771 461.364 975.058 461.76 976.581 461.76C978.705 461.76 980.25 460.978 981.215 459.413L983.596 460.763C982.03 463.186 979.67 464.398 976.517 464.398C973.964 464.398 971.883 463.604 970.274 462.018C968.686 460.41 967.893 458.383 967.893 455.939C967.893 453.516 968.676 451.501 970.242 449.893C971.808 448.285 973.835 447.481 976.324 447.481C978.684 447.481 980.604 448.317 982.084 449.989C983.586 451.64 984.337 453.634 984.337 455.971C984.337 456.379 984.304 456.797 984.24 457.226H970.757ZM976.324 450.118C974.822 450.118 973.578 450.547 972.591 451.404C971.604 452.241 970.993 453.366 970.757 454.781H981.505C981.269 453.259 980.668 452.101 979.703 451.308C978.737 450.515 977.611 450.118 976.324 450.118Z" fill="white"></path>
      <path d="M1008.86 450.6H1004.58V459.316C1004.58 460.109 1004.73 460.678 1005.03 461.021C1005.35 461.342 1005.83 461.514 1006.48 461.535C1007.12 461.535 1007.91 461.514 1008.86 461.471V463.979C1006.41 464.301 1004.62 464.108 1003.48 463.401C1002.35 462.672 1001.78 461.31 1001.78 459.316V450.6H998.592V447.899H1001.78V444.232L1004.58 443.396V447.899H1008.86V450.6Z" fill="white"></path>
      <path d="M1022.44 447.481C1024.33 447.481 1025.84 448.081 1026.97 449.282C1028.11 450.461 1028.68 452.069 1028.68 454.106V463.979H1025.88V454.267C1025.88 452.959 1025.53 451.951 1024.82 451.244C1024.11 450.515 1023.13 450.15 1021.89 450.15C1020.5 450.15 1019.37 450.59 1018.51 451.469C1017.65 452.326 1017.22 453.656 1017.22 455.457V463.979H1014.42V441.467H1017.22V450.214C1018.36 448.392 1020.1 447.481 1022.44 447.481Z" fill="white"></path>
      <path d="M1036.26 444.972C1035.72 444.972 1035.27 444.79 1034.91 444.425C1034.54 444.061 1034.36 443.621 1034.36 443.107C1034.36 442.592 1034.54 442.153 1034.91 441.788C1035.27 441.402 1035.72 441.209 1036.26 441.209C1036.77 441.209 1037.21 441.402 1037.58 441.788C1037.94 442.153 1038.12 442.592 1038.12 443.107C1038.12 443.621 1037.94 444.061 1037.58 444.425C1037.21 444.79 1036.77 444.972 1036.26 444.972ZM1034.84 463.979V447.899H1037.64V463.979H1034.84Z" fill="white"></path>
      <path d="M1052.18 447.481C1054.07 447.481 1055.58 448.081 1056.71 449.282C1057.85 450.461 1058.42 452.069 1058.42 454.106V463.979H1055.62V454.267C1055.62 452.959 1055.27 451.951 1054.56 451.244C1053.85 450.515 1052.87 450.15 1051.63 450.15C1050.24 450.15 1049.11 450.59 1048.25 451.469C1047.39 452.326 1046.96 453.656 1046.96 455.457V463.979H1044.16V447.899H1046.96V450.214C1048.1 448.392 1049.84 447.481 1052.18 447.481Z" fill="white"></path>
      <path d="M1077.94 447.899H1080.7V463.304C1080.7 465.684 1079.9 467.528 1078.29 468.836C1076.68 470.165 1074.75 470.83 1072.5 470.83C1070.7 470.83 1069.14 470.487 1067.83 469.801C1066.52 469.136 1065.54 468.171 1064.87 466.906L1067.32 465.523C1068.2 467.324 1069.94 468.225 1072.56 468.225C1074.23 468.225 1075.54 467.785 1076.49 466.906C1077.45 466.027 1077.94 464.826 1077.94 463.304V461.021C1076.52 463.165 1074.5 464.237 1071.89 464.237C1069.59 464.237 1067.65 463.422 1066.06 461.792C1064.47 460.163 1063.68 458.18 1063.68 455.843C1063.68 453.506 1064.47 451.533 1066.06 449.925C1067.65 448.295 1069.59 447.481 1071.89 447.481C1074.52 447.481 1076.54 448.542 1077.94 450.665V447.899ZM1068.12 459.927C1069.21 461.021 1070.58 461.567 1072.21 461.567C1073.84 461.567 1075.2 461.021 1076.29 459.927C1077.39 458.834 1077.94 457.472 1077.94 455.843C1077.94 454.235 1077.39 452.884 1076.29 451.79C1075.2 450.697 1073.84 450.15 1072.21 450.15C1070.58 450.15 1069.21 450.697 1068.12 451.79C1067.03 452.884 1066.48 454.235 1066.48 455.843C1066.48 457.472 1067.03 458.834 1068.12 459.927Z" fill="white"></path>
      <path d="M1089.58 452.241C1089.58 452.862 1089.89 453.366 1090.51 453.752C1091.13 454.117 1091.89 454.417 1092.77 454.653C1093.64 454.867 1094.52 455.124 1095.4 455.425C1096.28 455.703 1097.03 456.196 1097.66 456.904C1098.28 457.59 1098.59 458.48 1098.59 459.573C1098.59 461.031 1098.02 462.2 1096.88 463.079C1095.77 463.958 1094.33 464.398 1092.57 464.398C1091.01 464.398 1089.67 464.054 1088.55 463.368C1087.43 462.682 1086.64 461.771 1086.17 460.635L1088.58 459.252C1088.84 460.024 1089.32 460.635 1090.03 461.085C1090.74 461.535 1091.59 461.76 1092.57 461.76C1093.49 461.76 1094.26 461.589 1094.86 461.246C1095.46 460.881 1095.76 460.324 1095.76 459.573C1095.76 458.952 1095.45 458.458 1094.82 458.094C1094.2 457.708 1093.45 457.408 1092.57 457.193C1091.69 456.958 1090.81 456.69 1089.93 456.389C1089.05 456.089 1088.3 455.596 1087.68 454.91C1087.06 454.224 1086.75 453.345 1086.75 452.273C1086.75 450.879 1087.28 449.732 1088.36 448.832C1089.45 447.931 1090.81 447.481 1092.44 447.481C1093.75 447.481 1094.91 447.781 1095.92 448.381C1096.95 448.96 1097.72 449.775 1098.24 450.825L1095.89 452.144C1095.31 450.772 1094.16 450.086 1092.44 450.086C1091.65 450.086 1090.97 450.279 1090.42 450.665C1089.86 451.029 1089.58 451.554 1089.58 452.241Z" fill="white"></path>
      <path d="M1122.72 443.75C1119.89 443.514 1118.48 444.736 1118.48 447.416V447.899H1122.72V450.6H1118.48V463.979H1115.68V450.6H1113.1V447.899H1115.68V447.416C1115.68 445.251 1116.28 443.611 1117.48 442.496C1118.7 441.381 1120.45 440.898 1122.72 441.049V443.75Z" fill="white"></path>
      <path d="M1139.81 461.953C1138.16 463.583 1136.15 464.398 1133.79 464.398C1131.43 464.398 1129.43 463.583 1127.77 461.953C1126.14 460.324 1125.33 458.319 1125.33 455.939C1125.33 453.559 1126.14 451.554 1127.77 449.925C1129.43 448.295 1131.43 447.481 1133.79 447.481C1136.15 447.481 1138.16 448.295 1139.81 449.925C1141.46 451.554 1142.29 453.559 1142.29 455.939C1142.29 458.319 1141.46 460.324 1139.81 461.953ZM1133.79 461.664C1135.4 461.664 1136.75 461.117 1137.85 460.024C1138.94 458.93 1139.49 457.569 1139.49 455.939C1139.49 454.31 1138.94 452.948 1137.85 451.855C1136.75 450.761 1135.4 450.214 1133.79 450.214C1132.2 450.214 1130.86 450.761 1129.77 451.855C1128.67 452.948 1128.13 454.31 1128.13 455.939C1128.13 457.569 1128.67 458.93 1129.77 460.024C1130.86 461.117 1132.2 461.664 1133.79 461.664Z" fill="white"></path>
      <path d="M1150.64 450.6C1151.56 448.606 1153.23 447.609 1155.66 447.609V450.536C1154.29 450.472 1153.11 450.836 1152.12 451.63C1151.13 452.423 1150.64 453.699 1150.64 455.457V463.979H1147.84V447.899H1150.64V450.6Z" fill="white"></path>
      <path d="M1186.07 463.979L1184.24 458.93H1174.1L1172.27 463.979H1169.08L1177.48 441.467H1180.86L1189.26 463.979H1186.07ZM1175.13 456.132H1183.21L1179.15 445.036L1175.13 456.132Z" fill="white"></path>
      <path d="M1212.2 447.899H1215.13L1210.14 463.979H1207.28L1203.52 452.08L1199.75 463.979H1196.89L1191.9 447.899H1194.83L1198.37 460.12L1202.16 447.899H1204.87L1208.66 460.152L1212.2 447.899Z" fill="white"></path>
      <path d="M1221.6 457.226C1221.88 458.662 1222.53 459.777 1223.56 460.57C1224.61 461.364 1225.9 461.76 1227.43 461.76C1229.55 461.76 1231.09 460.978 1232.06 459.413L1234.44 460.763C1232.87 463.186 1230.51 464.398 1227.36 464.398C1224.81 464.398 1222.73 463.604 1221.12 462.018C1219.53 460.41 1218.74 458.383 1218.74 455.939C1218.74 453.516 1219.52 451.501 1221.09 449.893C1222.65 448.285 1224.68 447.481 1227.17 447.481C1229.53 447.481 1231.45 448.317 1232.93 449.989C1234.43 451.64 1235.18 453.634 1235.18 455.971C1235.18 456.379 1235.15 456.797 1235.08 457.226H1221.6ZM1227.17 450.118C1225.67 450.118 1224.42 450.547 1223.43 451.404C1222.45 452.241 1221.84 453.366 1221.6 454.781H1232.35C1232.11 453.259 1231.51 452.101 1230.55 451.308C1229.58 450.515 1228.45 450.118 1227.17 450.118Z" fill="white"></path>
      <path d="M1242.44 452.241C1242.44 452.862 1242.75 453.366 1243.37 453.752C1243.99 454.117 1244.74 454.417 1245.62 454.653C1246.5 454.867 1247.38 455.124 1248.26 455.425C1249.14 455.703 1249.89 456.196 1250.51 456.904C1251.14 457.59 1251.45 458.48 1251.45 459.573C1251.45 461.031 1250.88 462.2 1249.74 463.079C1248.63 463.958 1247.19 464.398 1245.43 464.398C1243.86 464.398 1242.52 464.054 1241.41 463.368C1240.29 462.682 1239.5 461.771 1239.03 460.635L1241.44 459.252C1241.7 460.024 1242.18 460.635 1242.89 461.085C1243.59 461.535 1244.44 461.76 1245.43 461.76C1246.35 461.76 1247.11 461.589 1247.71 461.246C1248.31 460.881 1248.61 460.324 1248.61 459.573C1248.61 458.952 1248.3 458.458 1247.68 458.094C1247.06 457.708 1246.31 457.408 1245.43 457.193C1244.55 456.958 1243.67 456.69 1242.79 456.389C1241.91 456.089 1241.16 455.596 1240.54 454.91C1239.92 454.224 1239.6 453.345 1239.6 452.273C1239.6 450.879 1240.14 449.732 1241.21 448.832C1242.31 447.931 1243.67 447.481 1245.3 447.481C1246.61 447.481 1247.77 447.781 1248.78 448.381C1249.81 448.96 1250.58 449.775 1251.09 450.825L1248.74 452.144C1248.16 450.772 1247.02 450.086 1245.3 450.086C1244.51 450.086 1243.83 450.279 1243.27 450.665C1242.72 451.029 1242.44 451.554 1242.44 452.241Z" fill="white"></path>
      <path d="M1270.15 461.953C1268.5 463.583 1266.5 464.398 1264.14 464.398C1261.78 464.398 1259.77 463.583 1258.12 461.953C1256.49 460.324 1255.67 458.319 1255.67 455.939C1255.67 453.559 1256.49 451.554 1258.12 449.925C1259.77 448.295 1261.78 447.481 1264.14 447.481C1266.5 447.481 1268.5 448.295 1270.15 449.925C1271.81 451.554 1272.63 453.559 1272.63 455.939C1272.63 458.319 1271.81 460.324 1270.15 461.953ZM1264.14 461.664C1265.75 461.664 1267.1 461.117 1268.19 460.024C1269.28 458.93 1269.83 457.569 1269.83 455.939C1269.83 454.31 1269.28 452.948 1268.19 451.855C1267.1 450.761 1265.75 450.214 1264.14 450.214C1262.55 450.214 1261.21 450.761 1260.11 451.855C1259.02 452.948 1258.47 454.31 1258.47 455.939C1258.47 457.569 1259.02 458.93 1260.11 460.024C1261.21 461.117 1262.55 461.664 1264.14 461.664Z" fill="white"></path>
      <path d="M1295.56 447.481C1297.36 447.481 1298.82 448.07 1299.94 449.25C1301.05 450.407 1301.61 451.983 1301.61 453.977V463.979H1298.81V454.074C1298.81 452.83 1298.49 451.865 1297.85 451.179C1297.2 450.493 1296.34 450.15 1295.27 450.15C1294.07 450.15 1293.11 450.557 1292.38 451.372C1291.67 452.166 1291.31 453.388 1291.31 455.039V463.979H1288.51V454.074C1288.51 452.83 1288.2 451.865 1287.58 451.179C1286.98 450.493 1286.15 450.15 1285.1 450.15C1283.92 450.15 1282.94 450.557 1282.14 451.372C1281.37 452.187 1280.98 453.409 1280.98 455.039V463.979H1278.18V447.899H1280.98V450.054C1282.08 448.338 1283.68 447.481 1285.78 447.481C1287.95 447.481 1289.52 448.392 1290.51 450.214C1291.62 448.392 1293.31 447.481 1295.56 447.481Z" fill="white"></path>
      <path d="M1309.71 457.226C1309.99 458.662 1310.64 459.777 1311.67 460.57C1312.72 461.364 1314.01 461.76 1315.53 461.76C1317.66 461.76 1319.2 460.978 1320.17 459.413L1322.55 460.763C1320.98 463.186 1318.62 464.398 1315.47 464.398C1312.92 464.398 1310.84 463.604 1309.23 462.018C1307.64 460.41 1306.84 458.383 1306.84 455.939C1306.84 453.516 1307.63 451.501 1309.19 449.893C1310.76 448.285 1312.79 447.481 1315.28 447.481C1317.64 447.481 1319.56 448.317 1321.04 449.989C1322.54 451.64 1323.29 453.634 1323.29 455.971C1323.29 456.379 1323.26 456.797 1323.19 457.226H1309.71ZM1315.28 450.118C1313.77 450.118 1312.53 450.547 1311.54 451.404C1310.56 452.241 1309.94 453.366 1309.71 454.781H1320.46C1320.22 453.259 1319.62 452.101 1318.65 451.308C1317.69 450.515 1316.56 450.118 1315.28 450.118Z" fill="white"></path>
      <path d="M1347.52 441.467C1349.6 441.467 1351.33 442.163 1352.7 443.557C1354.1 444.929 1354.79 446.645 1354.79 448.703C1354.79 450.74 1354.1 452.455 1352.7 453.849C1351.33 455.242 1349.6 455.939 1347.52 455.939H1342.34V463.979H1339.35V441.467H1347.52ZM1347.52 453.141C1348.76 453.141 1349.79 452.723 1350.61 451.887C1351.42 451.029 1351.83 449.968 1351.83 448.703C1351.83 447.416 1351.42 446.355 1350.61 445.519C1349.79 444.683 1348.76 444.265 1347.52 444.265H1342.34V453.141H1347.52Z" fill="white"></path>
      <path d="M1361.03 457.226C1361.31 458.662 1361.96 459.777 1362.99 460.57C1364.04 461.364 1365.33 461.76 1366.85 461.76C1368.98 461.76 1370.52 460.978 1371.49 459.413L1373.87 460.763C1372.3 463.186 1369.94 464.398 1366.79 464.398C1364.23 464.398 1362.15 463.604 1360.55 462.018C1358.96 460.41 1358.16 458.383 1358.16 455.939C1358.16 453.516 1358.95 451.501 1360.51 449.893C1362.08 448.285 1364.11 447.481 1366.59 447.481C1368.95 447.481 1370.87 448.317 1372.35 449.989C1373.86 451.64 1374.61 453.634 1374.61 455.971C1374.61 456.379 1374.58 456.797 1374.51 457.226H1361.03ZM1366.59 450.118C1365.09 450.118 1363.85 450.547 1362.86 451.404C1361.88 452.241 1361.26 453.366 1361.03 454.781H1371.78C1371.54 453.259 1370.94 452.101 1369.97 451.308C1369.01 450.515 1367.88 450.118 1366.59 450.118Z" fill="white"></path>
      <path d="M1393.63 461.953C1391.97 463.583 1389.97 464.398 1387.61 464.398C1385.25 464.398 1383.24 463.583 1381.59 461.953C1379.96 460.324 1379.15 458.319 1379.15 455.939C1379.15 453.559 1379.96 451.554 1381.59 449.925C1383.24 448.295 1385.25 447.481 1387.61 447.481C1389.97 447.481 1391.97 448.295 1393.63 449.925C1395.28 451.554 1396.1 453.559 1396.1 455.939C1396.1 458.319 1395.28 460.324 1393.63 461.953ZM1387.61 461.664C1389.22 461.664 1390.57 461.117 1391.66 460.024C1392.76 458.93 1393.3 457.569 1393.3 455.939C1393.3 454.31 1392.76 452.948 1391.66 451.855C1390.57 450.761 1389.22 450.214 1387.61 450.214C1386.02 450.214 1384.68 450.761 1383.59 451.855C1382.49 452.948 1381.95 454.31 1381.95 455.939C1381.95 457.569 1382.49 458.93 1383.59 460.024C1384.68 461.117 1386.02 461.664 1387.61 461.664Z" fill="white"></path>
      <path d="M1410.54 447.481C1412.79 447.481 1414.71 448.306 1416.3 449.957C1417.89 451.587 1418.68 453.581 1418.68 455.939C1418.68 458.298 1417.89 460.302 1416.3 461.953C1414.71 463.583 1412.79 464.398 1410.54 464.398C1407.88 464.398 1405.85 463.336 1404.46 461.214V470.412H1401.66V447.899H1404.46V450.665C1405.85 448.542 1407.88 447.481 1410.54 447.481ZM1410.19 461.696C1411.79 461.696 1413.15 461.149 1414.24 460.056C1415.33 458.941 1415.88 457.569 1415.88 455.939C1415.88 454.31 1415.33 452.948 1414.24 451.855C1413.15 450.74 1411.79 450.182 1410.19 450.182C1408.55 450.182 1407.19 450.74 1406.1 451.855C1405 452.948 1404.46 454.31 1404.46 455.939C1404.46 457.569 1405 458.941 1406.1 460.056C1407.19 461.149 1408.55 461.696 1410.19 461.696Z" fill="white"></path>
      <path d="M1424.27 463.979V440.502H1427.07V463.979H1424.27Z" fill="white"></path>
      <path d="M1435.56 457.226C1435.84 458.662 1436.49 459.777 1437.52 460.57C1438.57 461.364 1439.86 461.76 1441.38 461.76C1443.51 461.76 1445.05 460.978 1446.02 459.413L1448.4 460.763C1446.83 463.186 1444.47 464.398 1441.32 464.398C1438.77 464.398 1436.69 463.604 1435.08 462.018C1433.49 460.41 1432.7 458.383 1432.7 455.939C1432.7 453.516 1433.48 451.501 1435.05 449.893C1436.61 448.285 1438.64 447.481 1441.13 447.481C1443.49 447.481 1445.41 448.317 1446.89 449.989C1448.39 451.64 1449.14 453.634 1449.14 455.971C1449.14 456.379 1449.11 456.797 1449.04 457.226H1435.56ZM1441.13 450.118C1439.63 450.118 1438.38 450.547 1437.39 451.404C1436.41 452.241 1435.8 453.366 1435.56 454.781H1446.31C1446.07 453.259 1445.47 452.101 1444.51 451.308C1443.54 450.515 1442.41 450.118 1441.13 450.118Z" fill="white"></path>
      <path d="M1455.32 457.386L1454.71 447.899V441.467H1458.09V447.899L1457.47 457.386H1455.32ZM1456.38 464.333C1455.8 464.333 1455.31 464.13 1454.9 463.722C1454.49 463.315 1454.29 462.822 1454.29 462.243C1454.29 461.664 1454.49 461.171 1454.9 460.763C1455.31 460.356 1455.8 460.152 1456.38 460.152C1456.98 460.152 1457.47 460.356 1457.86 460.763C1458.27 461.171 1458.47 461.664 1458.47 462.243C1458.47 462.822 1458.27 463.315 1457.86 463.722C1457.47 464.13 1456.98 464.333 1456.38 464.333Z" fill="white"></path>
      <path d="M1176.7 354.016C1163.81 354.016 1153.35 364.467 1153.35 377.359C1153.35 387.672 1160.04 396.422 1169.32 399.509C1170.49 399.725 1170.86 399.001 1170.86 398.387V394.041C1164.37 395.453 1163.01 391.286 1163.01 391.286C1161.95 388.588 1160.42 387.871 1160.42 387.871C1158.3 386.421 1160.58 386.452 1160.58 386.452C1162.93 386.616 1164.16 388.859 1164.16 388.859C1166.24 392.426 1169.62 391.395 1170.96 390.798C1171.16 389.291 1171.77 388.26 1172.44 387.678C1167.25 387.085 1161.8 385.083 1161.8 376.141C1161.8 373.591 1162.71 371.509 1164.2 369.875C1163.96 369.286 1163.16 366.911 1164.43 363.697C1164.43 363.697 1166.39 363.071 1170.86 366.09C1172.72 365.572 1174.72 365.314 1176.7 365.304C1178.69 365.314 1180.69 365.572 1182.55 366.09C1187.01 363.071 1188.97 363.697 1188.97 363.697C1190.24 366.913 1189.44 369.288 1189.2 369.875C1190.7 371.509 1191.6 373.593 1191.6 376.141C1191.6 385.106 1186.14 387.081 1180.94 387.659C1181.78 388.382 1182.54 389.802 1182.54 391.981V398.387C1182.54 399.007 1182.91 399.736 1184.1 399.507C1193.37 396.416 1200.06 387.668 1200.06 377.359C1200.06 364.467 1189.6 354.016 1176.7 354.016Z" fill="url(#010b8de5e7fc7a5e7dfa9c34e3b30a01)"></path>
      <path d="M1241.12 391.938L1238.96 385.98H1227L1224.83 391.938H1221.07L1230.98 365.373H1234.97L1244.88 391.938H1241.12ZM1228.21 382.678H1237.74L1232.96 369.586L1228.21 382.678Z" fill="white"></path>
      <path d="M1250.33 391.938V364.235H1253.64V391.938H1250.33Z" fill="white"></path>
      <path d="M1274.63 372.963H1278.19L1270.6 391.938H1266.73L1259.13 372.963H1262.7L1268.66 388.409L1274.63 372.963Z" fill="white"></path>
      <path d="M1285.32 369.51C1284.68 369.51 1284.15 369.295 1283.72 368.865C1283.29 368.434 1283.08 367.916 1283.08 367.309C1283.08 366.701 1283.29 366.183 1283.72 365.753C1284.15 365.297 1284.68 365.069 1285.32 365.069C1285.92 365.069 1286.44 365.297 1286.87 365.753C1287.3 366.183 1287.52 366.701 1287.52 367.309C1287.52 367.916 1287.3 368.434 1286.87 368.865C1286.44 369.295 1285.92 369.51 1285.32 369.51ZM1283.65 391.938V372.963H1286.95V391.938H1283.65Z" fill="white"></path>
      <path d="M1304.1 372.47C1306.33 372.47 1308.12 373.178 1309.46 374.595C1310.8 375.987 1311.47 377.884 1311.47 380.288V391.938H1308.17V380.477C1308.17 378.934 1307.75 377.745 1306.91 376.91C1306.08 376.05 1304.93 375.62 1303.46 375.62C1301.81 375.62 1300.48 376.138 1299.47 377.176C1298.46 378.188 1297.95 379.756 1297.95 381.881V391.938H1294.65V372.963H1297.95V375.696C1299.29 373.545 1301.34 372.47 1304.1 372.47Z" fill="white"></path>
      <path d="M1321.06 383.969C1321.38 385.664 1322.16 386.979 1323.37 387.916C1324.61 388.852 1326.13 389.32 1327.93 389.32C1330.43 389.32 1332.26 388.396 1333.4 386.549L1336.21 388.143C1334.36 391.002 1331.57 392.432 1327.85 392.432C1324.84 392.432 1322.38 391.496 1320.49 389.623C1318.61 387.726 1317.68 385.335 1317.68 382.451C1317.68 379.592 1318.6 377.214 1320.45 375.316C1322.3 373.419 1324.69 372.47 1327.62 372.47C1330.41 372.47 1332.68 373.456 1334.42 375.43C1336.19 377.378 1337.08 379.731 1337.08 382.489C1337.08 382.969 1337.04 383.463 1336.97 383.969H1321.06ZM1327.62 375.582C1325.85 375.582 1324.38 376.088 1323.22 377.1C1322.06 378.086 1321.33 379.415 1321.06 381.085H1333.74C1333.46 379.288 1332.75 377.922 1331.61 376.986C1330.47 376.05 1329.14 375.582 1327.62 375.582Z" fill="white"></path>
      <path d="M1368.75 365.373V391.938H1365.26V371.179L1356.56 385.639H1356.1L1347.41 371.217V391.938H1343.88V365.373H1347.86L1356.33 379.415L1364.76 365.373H1368.75Z" fill="white"></path>
      <path d="M1392.77 389.547C1390.82 391.47 1388.46 392.432 1385.67 392.432C1382.89 392.432 1380.52 391.47 1378.57 389.547C1376.65 387.625 1375.69 385.259 1375.69 382.451C1375.69 379.642 1376.65 377.277 1378.57 375.354C1380.52 373.431 1382.89 372.47 1385.67 372.47C1388.46 372.47 1390.82 373.431 1392.77 375.354C1394.72 377.277 1395.7 379.642 1395.7 382.451C1395.7 385.259 1394.72 387.625 1392.77 389.547ZM1385.67 389.206C1387.57 389.206 1389.17 388.561 1390.46 387.27C1391.75 385.98 1392.39 384.374 1392.39 382.451C1392.39 380.528 1391.75 378.921 1390.46 377.631C1389.17 376.341 1387.57 375.696 1385.67 375.696C1383.8 375.696 1382.22 376.341 1380.93 377.631C1379.63 378.921 1378.99 380.528 1378.99 382.451C1378.99 384.374 1379.63 385.98 1380.93 387.27C1382.22 388.561 1383.8 389.206 1385.67 389.206Z" fill="white"></path>
      <path d="M1404.69 378.086C1404.69 378.82 1405.06 379.415 1405.79 379.87C1406.52 380.3 1407.41 380.654 1408.45 380.933C1409.49 381.186 1410.52 381.489 1411.56 381.844C1412.6 382.172 1413.49 382.754 1414.22 383.589C1414.95 384.399 1415.32 385.449 1415.32 386.739C1415.32 388.459 1414.65 389.838 1413.31 390.876C1411.99 391.913 1410.3 392.432 1408.22 392.432C1406.37 392.432 1404.79 392.027 1403.47 391.217C1402.16 390.408 1401.22 389.332 1400.66 387.991L1403.51 386.36C1403.82 387.27 1404.39 387.991 1405.22 388.523C1406.06 389.054 1407.06 389.32 1408.22 389.32C1409.31 389.32 1410.21 389.117 1410.92 388.713C1411.63 388.282 1411.98 387.625 1411.98 386.739C1411.98 386.005 1411.61 385.423 1410.88 384.993C1410.14 384.538 1409.26 384.184 1408.22 383.931C1407.18 383.652 1406.15 383.336 1405.11 382.982C1404.07 382.628 1403.18 382.046 1402.45 381.236C1401.72 380.427 1401.35 379.389 1401.35 378.124C1401.35 376.48 1401.98 375.126 1403.25 374.064C1404.54 373.001 1406.15 372.47 1408.07 372.47C1409.61 372.47 1410.98 372.824 1412.17 373.532C1413.39 374.216 1414.3 375.177 1414.9 376.417L1412.13 377.973C1411.45 376.353 1410.09 375.544 1408.07 375.544C1407.13 375.544 1406.34 375.771 1405.68 376.227C1405.02 376.657 1404.69 377.277 1404.69 378.086Z" fill="white"></path>
      <path d="M1423.69 383.969C1424.02 385.664 1424.79 386.979 1426 387.916C1427.25 388.852 1428.76 389.32 1430.56 389.32C1433.07 389.32 1434.89 388.396 1436.03 386.549L1438.84 388.143C1436.99 391.002 1434.21 392.432 1430.49 392.432C1427.47 392.432 1425.02 391.496 1423.12 389.623C1421.25 387.726 1420.31 385.335 1420.31 382.451C1420.31 379.592 1421.23 377.214 1423.08 375.316C1424.93 373.419 1427.32 372.47 1430.26 372.47C1433.04 372.47 1435.31 373.456 1437.05 375.43C1438.83 377.378 1439.71 379.731 1439.71 382.489C1439.71 382.969 1439.67 383.463 1439.6 383.969H1423.69ZM1430.26 375.582C1428.49 375.582 1427.02 376.088 1425.85 377.1C1424.69 378.086 1423.97 379.415 1423.69 381.085H1436.37C1436.09 379.288 1435.38 377.922 1434.24 376.986C1433.11 376.05 1431.78 375.582 1430.26 375.582Z" fill="white"></path>
      <path d="M1448.27 378.086C1448.27 378.82 1448.64 379.415 1449.38 379.87C1450.11 380.3 1451 380.654 1452.03 380.933C1453.07 381.186 1454.11 381.489 1455.15 381.844C1456.19 382.172 1457.07 382.754 1457.81 383.589C1458.54 384.399 1458.91 385.449 1458.91 386.739C1458.91 388.459 1458.24 389.838 1456.89 390.876C1455.58 391.913 1453.88 392.432 1451.81 392.432C1449.96 392.432 1448.38 392.027 1447.06 391.217C1445.74 390.408 1444.81 389.332 1444.25 387.991L1447.1 386.36C1447.4 387.27 1447.97 387.991 1448.81 388.523C1449.64 389.054 1450.64 389.32 1451.81 389.32C1452.89 389.32 1453.79 389.117 1454.5 388.713C1455.21 388.282 1455.56 387.625 1455.56 386.739C1455.56 386.005 1455.2 385.423 1454.46 384.993C1453.73 384.538 1452.84 384.184 1451.81 383.931C1450.77 383.652 1449.73 383.336 1448.69 382.982C1447.65 382.628 1446.77 382.046 1446.03 381.236C1445.3 380.427 1444.93 379.389 1444.93 378.124C1444.93 376.48 1445.57 375.126 1446.83 374.064C1448.12 373.001 1449.73 372.47 1451.65 372.47C1453.2 372.47 1454.57 372.824 1455.75 373.532C1456.97 374.216 1457.88 375.177 1458.49 376.417L1455.72 377.973C1455.03 376.353 1453.68 375.544 1451.65 375.544C1450.72 375.544 1449.92 375.771 1449.26 376.227C1448.6 376.657 1448.27 377.277 1448.27 378.086Z" fill="white"></path>
      <path d="M1158.04 292.956C1158.04 291.749 1158.46 290.753 1159.31 289.968C1160.15 289.183 1161.25 288.791 1162.6 288.791C1163.93 288.791 1165.01 289.177 1165.83 289.95C1166.67 290.747 1167.1 291.785 1167.1 293.064C1167.1 294.223 1166.69 295.189 1165.87 295.962C1165.02 296.759 1163.91 297.157 1162.53 297.157H1162.49C1161.17 297.157 1160.09 296.759 1159.27 295.962C1158.45 295.165 1158.04 294.163 1158.04 292.956ZM1158.51 324.646V300.453H1166.55V324.646H1158.51ZM1171.01 324.646H1179.06V311.137C1179.06 310.292 1179.15 309.64 1179.35 309.181C1179.68 308.36 1180.2 307.666 1180.89 307.099C1181.57 306.531 1182.44 306.248 1183.48 306.248C1186.18 306.248 1187.54 308.071 1187.54 311.717V324.646H1195.58V310.775C1195.58 307.201 1194.74 304.491 1193.04 302.644C1191.35 300.797 1189.12 299.873 1186.34 299.873C1183.22 299.873 1180.8 301.213 1179.06 303.893V303.966H1179.02L1179.06 303.893V300.453H1171.01C1171.06 301.225 1171.08 303.628 1171.08 307.66C1171.08 311.692 1171.06 317.354 1171.01 324.646Z" fill="url(#8bedb839c08a6f44647b45824a9a3050)"></path>
      <path d="M1240.91 323.328L1238.74 317.369H1226.78L1224.62 323.328H1220.86L1230.77 296.762H1234.76L1244.67 323.328H1240.91ZM1228 314.068H1237.53L1232.74 300.975L1228 314.068Z" fill="white"></path>
      <path d="M1250.12 323.328V295.624H1253.42V323.328H1250.12Z" fill="white"></path>
      <path d="M1274.41 304.352H1277.98L1270.39 323.328H1266.51L1258.92 304.352H1262.49L1268.45 319.798L1274.41 304.352Z" fill="white"></path>
      <path d="M1285.1 300.899C1284.47 300.899 1283.94 300.684 1283.51 300.254C1283.08 299.824 1282.86 299.305 1282.86 298.698C1282.86 298.091 1283.08 297.572 1283.51 297.142C1283.94 296.687 1284.47 296.459 1285.1 296.459C1285.71 296.459 1286.23 296.687 1286.66 297.142C1287.09 297.572 1287.31 298.091 1287.31 298.698C1287.31 299.305 1287.09 299.824 1286.66 300.254C1286.23 300.684 1285.71 300.899 1285.1 300.899ZM1283.43 323.328V304.352H1286.74V323.328H1283.43Z" fill="white"></path>
      <path d="M1303.89 303.859C1306.12 303.859 1307.9 304.568 1309.24 305.984C1310.58 307.376 1311.26 309.273 1311.26 311.677V323.328H1307.95V311.867C1307.95 310.323 1307.53 309.134 1306.7 308.299C1305.86 307.439 1304.71 307.009 1303.24 307.009C1301.6 307.009 1300.27 307.528 1299.26 308.565C1298.24 309.577 1297.74 311.146 1297.74 313.271V323.328H1294.43V304.352H1297.74V307.085C1299.08 304.934 1301.13 303.859 1303.89 303.859Z" fill="white"></path>
      <path d="M1320.84 315.358C1321.17 317.053 1321.94 318.369 1323.16 319.305C1324.4 320.241 1325.92 320.709 1327.71 320.709C1330.22 320.709 1332.04 319.786 1333.18 317.939L1335.99 319.533C1334.14 322.392 1331.36 323.821 1327.64 323.821C1324.63 323.821 1322.17 322.885 1320.27 321.013C1318.4 319.115 1317.46 316.724 1317.46 313.84C1317.46 310.981 1318.39 308.603 1320.23 306.705C1322.08 304.808 1324.47 303.859 1327.41 303.859C1330.2 303.859 1332.46 304.846 1334.21 306.819C1335.98 308.767 1336.87 311.12 1336.87 313.878C1336.87 314.359 1336.83 314.852 1336.75 315.358H1320.84ZM1327.41 306.971C1325.64 306.971 1324.17 307.477 1323.01 308.489C1321.84 309.476 1321.12 310.804 1320.84 312.474H1333.52C1333.25 310.678 1332.54 309.311 1331.4 308.375C1330.26 307.439 1328.93 306.971 1327.41 306.971Z" fill="white"></path>
      <path d="M1368.53 296.762V323.328H1365.04V302.569L1356.35 317.028H1355.89L1347.19 302.607V323.328H1343.66V296.762H1347.65L1356.12 310.804L1364.55 296.762H1368.53Z" fill="white"></path>
      <path d="M1392.56 320.937C1390.61 322.86 1388.24 323.821 1385.46 323.821C1382.67 323.821 1380.31 322.86 1378.36 320.937C1376.43 319.014 1375.47 316.648 1375.47 313.84C1375.47 311.032 1376.43 308.666 1378.36 306.743C1380.31 304.821 1382.67 303.859 1385.46 303.859C1388.24 303.859 1390.61 304.821 1392.56 306.743C1394.51 308.666 1395.48 311.032 1395.48 313.84C1395.48 316.648 1394.51 319.014 1392.56 320.937ZM1385.46 320.595C1387.36 320.595 1388.95 319.95 1390.24 318.66C1391.53 317.369 1392.18 315.763 1392.18 313.84C1392.18 311.917 1391.53 310.311 1390.24 309.02C1388.95 307.73 1387.36 307.085 1385.46 307.085C1383.58 307.085 1382 307.73 1380.71 309.02C1379.42 310.311 1378.77 311.917 1378.77 313.84C1378.77 315.763 1379.42 317.369 1380.71 318.66C1382 319.95 1383.58 320.595 1385.46 320.595Z" fill="white"></path>
      <path d="M1404.48 309.476C1404.48 310.209 1404.84 310.804 1405.58 311.259C1406.31 311.69 1407.2 312.044 1408.23 312.322C1409.27 312.575 1410.31 312.879 1411.35 313.233C1412.39 313.562 1413.27 314.144 1414.01 314.979C1414.74 315.788 1415.11 316.838 1415.11 318.128C1415.11 319.849 1414.44 321.228 1413.09 322.265C1411.78 323.302 1410.08 323.821 1408.01 323.821C1406.16 323.821 1404.58 323.416 1403.26 322.607C1401.94 321.797 1401.01 320.722 1400.45 319.381L1403.3 317.749C1403.6 318.66 1404.17 319.381 1405.01 319.912C1405.84 320.443 1406.84 320.709 1408.01 320.709C1409.09 320.709 1409.99 320.507 1410.7 320.102C1411.41 319.672 1411.77 319.014 1411.77 318.128C1411.77 317.395 1411.4 316.813 1410.66 316.383C1409.93 315.927 1409.04 315.573 1408.01 315.32C1406.97 315.042 1405.93 314.726 1404.89 314.371C1403.85 314.017 1402.97 313.435 1402.23 312.626C1401.5 311.816 1401.13 310.779 1401.13 309.514C1401.13 307.869 1401.77 306.516 1403.03 305.453C1404.32 304.39 1405.93 303.859 1407.85 303.859C1409.4 303.859 1410.77 304.213 1411.96 304.922C1413.17 305.605 1414.08 306.566 1414.69 307.806L1411.92 309.362C1411.23 307.743 1409.88 306.933 1407.85 306.933C1406.92 306.933 1406.12 307.161 1405.46 307.616C1404.8 308.046 1404.48 308.666 1404.48 309.476Z" fill="white"></path>
      <path d="M1423.47 315.358C1423.8 317.053 1424.58 318.369 1425.79 319.305C1427.03 320.241 1428.55 320.709 1430.35 320.709C1432.85 320.709 1434.68 319.786 1435.81 317.939L1438.62 319.533C1436.78 322.392 1433.99 323.821 1430.27 323.821C1427.26 323.821 1424.8 322.885 1422.9 321.013C1421.03 319.115 1420.09 316.724 1420.09 313.84C1420.09 310.981 1421.02 308.603 1422.87 306.705C1424.71 304.808 1427.11 303.859 1430.04 303.859C1432.83 303.859 1435.09 304.846 1436.84 306.819C1438.61 308.767 1439.5 311.12 1439.5 313.878C1439.5 314.359 1439.46 314.852 1439.38 315.358H1423.47ZM1430.04 306.971C1428.27 306.971 1426.8 307.477 1425.64 308.489C1424.47 309.476 1423.75 310.804 1423.47 312.474H1436.16C1435.88 310.678 1435.17 309.311 1434.03 308.375C1432.89 307.439 1431.56 306.971 1430.04 306.971Z" fill="white"></path>
      <path d="M1448.06 309.476C1448.06 310.209 1448.43 310.804 1449.16 311.259C1449.9 311.69 1450.78 312.044 1451.82 312.322C1452.86 312.575 1453.89 312.879 1454.93 313.233C1455.97 313.562 1456.86 314.144 1457.59 314.979C1458.32 315.788 1458.69 316.838 1458.69 318.128C1458.69 319.849 1458.02 321.228 1456.68 322.265C1455.36 323.302 1453.67 323.821 1451.59 323.821C1449.74 323.821 1448.16 323.416 1446.84 322.607C1445.53 321.797 1444.59 320.722 1444.03 319.381L1446.88 317.749C1447.19 318.66 1447.76 319.381 1448.59 319.912C1449.43 320.443 1450.43 320.709 1451.59 320.709C1452.68 320.709 1453.58 320.507 1454.29 320.102C1455 319.672 1455.35 319.014 1455.35 318.128C1455.35 317.395 1454.98 316.813 1454.25 316.383C1453.52 315.927 1452.63 315.573 1451.59 315.32C1450.55 315.042 1449.52 314.726 1448.48 314.371C1447.44 314.017 1446.55 313.435 1445.82 312.626C1445.09 311.816 1444.72 310.779 1444.72 309.514C1444.72 307.869 1445.35 306.516 1446.62 305.453C1447.91 304.39 1449.52 303.859 1451.44 303.859C1452.98 303.859 1454.35 304.213 1455.54 304.922C1456.76 305.605 1457.67 306.566 1458.27 307.806L1455.5 309.362C1454.82 307.743 1453.46 306.933 1451.44 306.933C1450.5 306.933 1449.71 307.161 1449.05 307.616C1448.39 308.046 1448.06 308.666 1448.06 309.476Z" fill="white"></path>
      <path d="M1189.97 225.687C1187.53 224.536 1184.92 223.687 1182.19 223.201C1182.14 223.192 1182.09 223.215 1182.06 223.262C1181.73 223.878 1181.35 224.681 1181.09 225.312C1178.16 224.859 1175.23 224.859 1172.35 225.312C1172.09 224.667 1171.71 223.878 1171.37 223.262C1171.35 223.217 1171.3 223.193 1171.25 223.201C1168.52 223.685 1165.9 224.534 1163.46 225.687C1163.44 225.697 1163.43 225.712 1163.41 225.733C1158.46 233.36 1157.1 240.8 1157.77 248.148C1157.77 248.184 1157.79 248.218 1157.82 248.24C1161.09 250.714 1164.25 252.215 1167.36 253.211C1167.41 253.226 1167.46 253.208 1167.5 253.165C1168.23 252.131 1168.89 251.04 1169.45 249.893C1169.48 249.826 1169.45 249.746 1169.38 249.72C1168.34 249.313 1167.35 248.818 1166.4 248.255C1166.32 248.21 1166.32 248.099 1166.39 248.046C1166.59 247.891 1166.79 247.73 1166.98 247.568C1167.01 247.538 1167.06 247.532 1167.1 247.551C1173.36 250.493 1180.13 250.493 1186.31 247.551C1186.36 247.53 1186.4 247.537 1186.44 247.566C1186.63 247.729 1186.83 247.891 1187.03 248.046C1187.1 248.099 1187.1 248.21 1187.02 248.255C1186.07 248.829 1185.08 249.313 1184.04 249.718C1183.97 249.745 1183.94 249.826 1183.97 249.893C1184.55 251.039 1185.2 252.129 1185.93 253.164C1185.96 253.208 1186.01 253.226 1186.06 253.211C1189.18 252.215 1192.35 250.714 1195.62 248.24C1195.65 248.218 1195.67 248.185 1195.67 248.149C1196.47 239.654 1194.33 232.276 1190.02 225.734C1190.01 225.712 1189.99 225.697 1189.97 225.687ZM1170.38 243.674C1168.5 243.674 1166.95 241.892 1166.95 239.704C1166.95 237.517 1168.47 235.735 1170.38 235.735C1172.31 235.735 1173.85 237.532 1173.82 239.704C1173.82 241.892 1172.3 243.674 1170.38 243.674ZM1183.08 243.674C1181.2 243.674 1179.65 241.892 1179.65 239.704C1179.65 237.517 1181.17 235.735 1183.08 235.735C1185.01 235.735 1186.55 237.532 1186.52 239.704C1186.52 241.892 1185.01 243.674 1183.08 243.674Z" fill="url(#78b71eff8f0db47efbd93a4854185d31)"></path>
      <path d="M1240.82 254.717L1238.65 248.759H1226.69L1224.53 254.717H1220.77L1230.68 228.152H1234.67L1244.58 254.717H1240.82ZM1227.91 245.457H1237.44L1232.66 232.364L1227.91 245.457Z" fill="white"></path>
      <path d="M1250.03 254.717V227.013H1253.33V254.717H1250.03Z" fill="white"></path>
      <path d="M1274.32 235.742H1277.89L1270.3 254.717H1266.42L1258.83 235.742H1262.4L1268.36 251.188L1274.32 235.742Z" fill="white"></path>
      <path d="M1285.01 232.288C1284.38 232.288 1283.85 232.073 1283.42 231.643C1282.99 231.213 1282.77 230.694 1282.77 230.087C1282.77 229.48 1282.99 228.961 1283.42 228.531C1283.85 228.076 1284.38 227.848 1285.01 227.848C1285.62 227.848 1286.14 228.076 1286.57 228.531C1287 228.961 1287.22 229.48 1287.22 230.087C1287.22 230.694 1287 231.213 1286.57 231.643C1286.14 232.073 1285.62 232.288 1285.01 232.288ZM1283.34 254.717V235.742H1286.65V254.717H1283.34Z" fill="white"></path>
      <path d="M1303.8 235.249C1306.03 235.249 1307.81 235.957 1309.15 237.374C1310.5 238.765 1311.17 240.663 1311.17 243.066V254.717H1307.86V243.256C1307.86 241.713 1307.45 240.524 1306.61 239.689C1305.77 238.828 1304.62 238.398 1303.15 238.398C1301.51 238.398 1300.18 238.917 1299.17 239.954C1298.15 240.966 1297.65 242.535 1297.65 244.66V254.717H1294.34V235.742H1297.65V238.474C1298.99 236.324 1301.04 235.249 1303.8 235.249Z" fill="white"></path>
      <path d="M1320.75 246.747C1321.08 248.443 1321.85 249.758 1323.07 250.694C1324.31 251.63 1325.83 252.098 1327.63 252.098C1330.13 252.098 1331.95 251.175 1333.09 249.328L1335.9 250.922C1334.06 253.781 1331.27 255.21 1327.55 255.21C1324.54 255.21 1322.08 254.274 1320.18 252.402C1318.31 250.505 1317.37 248.114 1317.37 245.229C1317.37 242.371 1318.3 239.992 1320.15 238.095C1321.99 236.197 1324.39 235.249 1327.32 235.249C1330.11 235.249 1332.37 236.235 1334.12 238.209C1335.89 240.157 1336.78 242.51 1336.78 245.267C1336.78 245.748 1336.74 246.241 1336.66 246.747H1320.75ZM1327.32 238.36C1325.55 238.36 1324.08 238.866 1322.92 239.878C1321.75 240.865 1321.03 242.193 1320.75 243.863H1333.44C1333.16 242.067 1332.45 240.701 1331.31 239.765C1330.17 238.828 1328.84 238.36 1327.32 238.36Z" fill="white"></path>
      <path d="M1368.45 228.152V254.717H1364.95V233.958L1356.26 248.417H1355.8L1347.11 233.996V254.717H1343.57V228.152H1347.56L1356.03 242.193L1364.46 228.152H1368.45Z" fill="white"></path>
    </g>
  </g>
  <defs>
    <linearGradient id="ec9aca2807661f8a1c8d8afeb965e68f" x1="25.5228" y1="16.5179" x2="215.752" y2="808.003" gradientUnits="userSpaceOnUse">
      <stop stop-color="#800073"></stop>
      <stop offset="0.286458" stop-color="#B51066"></stop>
      <stop offset="0.484375" stop-color="#DC2920"></stop>
      <stop offset="1" stop-color="#FF3801"></stop>
    </linearGradient>
    <linearGradient id="010b8de5e7fc7a5e7dfa9c34e3b30a01" x1="750" y1="0" x2="750" y2="500" gradientUnits="userSpaceOnUse">
      <stop stop-color="#FF533C"></stop>
      <stop offset="1" stop-color="#FDB47D"></stop>
    </linearGradient>
    <linearGradient id="8bedb839c08a6f44647b45824a9a3050" x1="750" y1="0" x2="750" y2="500" gradientUnits="userSpaceOnUse">
      <stop stop-color="#FF533C"></stop>
      <stop offset="1" stop-color="#FDB47D"></stop>
    </linearGradient>
    <linearGradient id="78b71eff8f0db47efbd93a4854185d31" x1="750" y1="0" x2="750" y2="500" gradientUnits="userSpaceOnUse">
      <stop stop-color="#FF533C"></stop>
      <stop offset="1" stop-color="#FDB47D"></stop>
    </linearGradient>
    <clipPath id="clip0_14_26">
      <rect width="1500" height="500" fill="white"></rect>
    </clipPath>
  </defs>
</svg>